<?xml version="1.0" encoding="UTF-8" standalone="no"?>
<svg
   width="157.33"
   height="267.55"
   version="1.1"
   id="svg181"
   sodipodi:docname="logo.svg"
   inkscape:version="1.2.2 (b0a8486541, 2022-12-01)"
   xmlns:inkscape="http://www.inkscape.org/namespaces/inkscape"
   xmlns:sodipodi="http://sodipodi.sourceforge.net/DTD/sodipodi-0.dtd"
   xmlns="http://www.w3.org/2000/svg"
   xmlns:svg="http://www.w3.org/2000/svg"
   xmlns:rdf="http://www.w3.org/1999/02/22-rdf-syntax-ns#"
   xmlns:cc="http://creativecommons.org/ns#"
   xmlns:dc="http://purl.org/dc/elements/1.1/">
  <sodipodi:namedview
     id="namedview183"
     pagecolor="#ffffff"
     bordercolor="#000000"
     borderopacity="0.25"
     inkscape:showpageshadow="2"
     inkscape:pageopacity="0.0"
     inkscape:pagecheckerboard="0"
     inkscape:deskcolor="#d1d1d1"
     showgrid="false"
     inkscape:zoom="2.474304"
     inkscape:cx="79.012119"
     inkscape:cy="263.10429"
     inkscape:window-width="1600"
     inkscape:window-height="836"
     inkscape:window-x="0"
     inkscape:window-y="28"
     inkscape:window-maximized="1"
     inkscape:current-layer="svg181" />
  <defs
     id="defs166">
    <style
       id="style164">.cls-1,.cls-2{fill:#1a1a1a;}.cls-2{font-size:44px;font-family:SegoeUI-Semilight, Segoe UI;}</style>
  </defs>
  <title
     id="title168">Hexlet_Logo-01</title>
  <g
     id="g173">
    <title
       id="title170">background</title>
    <rect
       fill="none"
       id="canvas_background"
       height="269.55"
       width="159.33"
       y="-1"
       x="-1" />
  </g>
  <g
     id="g179">
    <title
       id="title175">Layer 1</title>
    <path
       id="svg_1"
       d="m139.44,267.38l-6.12,0a9,9 0 0 1 -9,-9l0,-75.12l-91.76,0l0,75.12a9,9 0 0 1 -9,9l-6,0a9,9 0 0 1 -9,-9l0,-173l24,16l0,62.25l91.75,0l0,-62.25l24.13,-16l0,173a9,9 0 0 1 -9,9z"
       class="cls-1" />
    <polygon
       id="svg_2"
       points="1 44.88 78.5 89.76 156 44.88 78.5 0 1 44.88"
       class="cls-1" />
  </g>
  <metadata
     id="metadata348">
    <rdf:RDF>
      <cc:Work
         rdf:about="">
        <dc:title>Hexlet_Logo-01</dc:title>
      </cc:Work>
    </rdf:RDF>
  </metadata>
</svg>
